<?xml version="1.0" encoding="UTF-8" standalone="no"?>
<!DOCTYPE svg PUBLIC "-//W3C//DTD SVG 1.1//EN" "http://www.w3.org/Graphics/SVG/1.1/DTD/svg11.dtd">
<svg width="100%" height="100%" viewBox="0 0 180 216" version="1.1" xmlns="http://www.w3.org/2000/svg" xmlns:xlink="http://www.w3.org/1999/xlink" xml:space="preserve" style="fill-rule:evenodd;clip-rule:evenodd;stroke-linejoin:round;stroke-miterlimit:1.41421;">
    <g>
        <g transform="matrix(14.4478,0,0,14.4478,-1067.84,-432.596)">
            <path d="M86.369,40.596L83.762,37.43L81.636,37.43L84.253,40.596L86.369,40.596Z" style="fill:rgb(19,166,212);"/>
        </g>
        <g transform="matrix(-14.4478,0,0,14.4478,1359.45,-478.624)">
            <path d="M86.369,40.596L83.762,37.43L81.636,37.43L84.253,40.596L86.369,40.596Z" style="fill:rgb(64,102,139);"/>
        </g>
        <g transform="matrix(14.4478,0,0,14.4478,-1179.45,-432.596)">
            <path d="M86.369,40.596L83.754,37.43L81.636,37.43L86.369,43.006L86.369,40.596Z" style="fill:rgb(19,166,212);"/>
        </g>
        <g transform="matrix(-14.4478,0,0,14.4478,1247.84,-478.95)">
            <path d="M86.369,40.596L81.636,35.036L81.636,37.474L84.253,40.596L86.369,40.596Z" style="fill:rgb(64,102,139);"/>
        </g>
        <g transform="matrix(14.4083,0,0,13.1907,-1064.29,-266.065)">
            <rect x="78.627" y="31.843" width="7.732" height="2.624" style="fill:rgb(10,137,179);"/>
        </g>
        <g transform="matrix(14.4169,0,0,13.1907,-1065.03,-392.44)">
            <rect x="78.627" y="31.843" width="7.732" height="2.624" style="fill:rgb(10,137,179);"/>
        </g>
    </g>
</svg>
