<?xml version="1.0" encoding="UTF-8" standalone="no"?>
<!DOCTYPE svg PUBLIC "-//W3C//DTD SVG 1.1//EN" "http://www.w3.org/Graphics/SVG/1.1/DTD/svg11.dtd">
<svg width="100%" height="100%" viewBox="0 0 4000 2481" version="1.1" xmlns="http://www.w3.org/2000/svg" xmlns:xlink="http://www.w3.org/1999/xlink" xml:space="preserve" xmlns:serif="http://www.serif.com/" style="fill-rule:evenodd;clip-rule:evenodd;stroke-miterlimit:1.5;">
    <g transform="matrix(2.73293,0,0,2.73293,344.09,-368.663)">
        <g>
            <g transform="matrix(1.08173,-0.103034,0.103034,1.08173,-1482.09,-294.571)">
                <path d="M1620.6,1316.95C1634.61,1287.24 1645.72,1254.85 1653.98,1235.03C1660.8,1218.65 1654.09,1211.75 1654.09,1211.75L1699.84,1234.83C1699.84,1234.83 1692.12,1234.04 1684.42,1247.29C1670.67,1270.96 1649.04,1310.48 1641.8,1327.22C1631.63,1350.78 1666.59,1403.87 1603.92,1375.98C1550.67,1352.28 1609.48,1340.53 1620.6,1316.95Z" style="fill:rgb(100,47,184);"/>
            </g>
            <g transform="matrix(-1.08173,0.103034,-0.103034,-1.08173,2611.6,1471.93)">
                <path d="M1620.6,1316.95C1634.61,1287.24 1645.72,1254.85 1653.98,1235.03C1660.8,1218.65 1654.09,1211.75 1654.09,1211.75L1699.84,1234.83C1699.84,1234.83 1692.12,1234.04 1684.42,1247.29C1670.67,1270.96 1649.04,1310.48 1641.8,1327.22C1631.63,1350.78 1666.59,1403.87 1603.92,1375.98C1550.67,1352.28 1609.48,1340.53 1620.6,1316.95Z" style="fill:rgb(117,67,196);"/>
            </g>
            <g transform="matrix(-0.543311,0.941043,-0.941043,-0.543311,2547.1,-458.419)">
                <path d="M1620.6,1316.95C1634.61,1287.24 1645.72,1254.85 1653.98,1235.03C1660.8,1218.65 1654.09,1211.75 1654.09,1211.75L1699.84,1234.83C1699.84,1234.83 1692.12,1234.04 1684.42,1247.29C1670.67,1270.96 1649.04,1310.48 1641.8,1327.22C1631.63,1350.78 1666.59,1403.87 1603.92,1375.98C1550.67,1352.28 1609.48,1340.53 1620.6,1316.95Z" style="fill:rgb(117,67,196);"/>
            </g>
            <g transform="matrix(0.543311,-0.941043,0.941043,0.543311,-1341.73,1744.11)">
                <path d="M1620.6,1316.95C1634.61,1287.24 1645.72,1254.85 1653.98,1235.03C1660.8,1218.65 1654.09,1211.75 1654.09,1211.75L1699.84,1234.83C1699.84,1234.83 1692.12,1234.04 1684.42,1247.29C1670.67,1270.96 1649.04,1310.48 1641.8,1327.22C1631.63,1350.78 1666.59,1403.87 1603.92,1375.98C1550.67,1352.28 1609.48,1340.53 1620.6,1316.95Z" style="fill:rgb(73,23,152);"/>
            </g>
            <g transform="matrix(0.587782,0.913926,-0.913926,0.587782,536.439,-1635.27)">
                <path d="M1620.6,1316.95C1634.61,1287.24 1645.72,1254.85 1653.98,1235.03C1660.8,1218.65 1654.09,1211.75 1654.09,1211.75L1699.84,1234.83C1699.84,1234.83 1692.12,1234.04 1684.42,1247.29C1670.67,1270.96 1649.04,1310.48 1641.8,1327.22C1631.63,1350.78 1666.59,1403.87 1603.92,1375.98C1550.67,1352.28 1609.48,1340.53 1620.6,1316.95Z" style="fill:rgb(117,67,196);"/>
            </g>
            <g transform="matrix(-0.587782,-0.913926,0.913926,-0.587782,718.891,2812.63)">
                <path d="M1620.6,1316.95C1634.61,1287.24 1645.72,1254.85 1653.98,1235.03C1660.8,1218.65 1654.09,1211.75 1654.09,1211.75L1699.84,1234.83C1699.84,1234.83 1692.12,1234.04 1684.42,1247.29C1670.67,1270.96 1649.04,1310.48 1641.8,1327.22C1631.63,1350.78 1666.59,1403.87 1603.92,1375.98C1550.67,1352.28 1609.48,1340.53 1620.6,1316.95Z" style="fill:rgb(100,47,184);"/>
            </g>
            <g transform="matrix(0.916918,-0.583104,0.583104,0.916918,-1659.95,731.458)">
                <path d="M1642.32,1271.92C1649.65,1255.21 1650.76,1248.23 1653.98,1235.03C1658.18,1217.79 1654.09,1211.75 1654.09,1211.75L1699.84,1234.83C1699.84,1234.83 1692.79,1234.46 1684.42,1247.29C1677.3,1258.21 1672.39,1264.92 1663.52,1282.18C1651.8,1305.02 1688.31,1358.84 1625.64,1330.94C1572.38,1307.24 1631.84,1295.78 1642.32,1271.92Z" style="fill:rgb(73,23,152);"/>
            </g>
            <g transform="matrix(-0.916918,0.583104,-0.583104,-0.916918,2789.47,445.927)">
                <path d="M1642.32,1271.92C1648.55,1258.71 1648.36,1249.84 1653.98,1235.03C1660.27,1218.44 1654.09,1211.75 1654.09,1211.75L1699.84,1234.83C1699.84,1234.83 1692.55,1234.3 1684.42,1247.29C1675.14,1262.12 1671.45,1264.56 1663.52,1282.18C1652.99,1305.59 1688.31,1358.84 1625.64,1330.94C1572.38,1307.24 1631.2,1295.49 1642.32,1271.92Z" style="fill:rgb(117,67,196);"/>
            </g>
            <g transform="matrix(1.00402,0.415566,-0.415566,1.00402,-830.094,-1150.31)">
                <path d="M1639.62,1276.62C1653.63,1246.9 1650.71,1249 1653.98,1235.03C1658.02,1217.75 1654.09,1211.75 1654.09,1211.75L1699.84,1234.83C1699.84,1234.83 1693.84,1235.2 1684.42,1247.29C1674.82,1259.62 1668.05,1270.14 1660.82,1286.88C1650.64,1310.44 1685.61,1363.53 1622.94,1335.64C1569.68,1311.94 1628.5,1300.18 1639.62,1276.62Z" style="fill:rgb(117,67,196);"/>
            </g>
            <g transform="matrix(-1.00402,-0.415566,0.415566,-1.00402,1959.61,2327.68)">
                <path d="M1604.35,1356.15C1618.37,1326.43 1645.72,1254.85 1653.98,1235.03C1660.8,1218.65 1654.09,1211.75 1654.09,1211.75L1699.84,1234.83C1699.84,1234.83 1692.12,1234.04 1684.42,1247.29C1670.67,1270.96 1632.79,1349.67 1625.56,1366.41C1615.38,1389.98 1650.35,1443.07 1587.68,1415.17C1534.42,1391.47 1593.24,1379.72 1604.35,1356.15Z" style="fill:rgb(100,47,184);"/>
            </g>
            <g transform="matrix(1.18907,0,0,1.1831,-653.158,-518.969)">
                <circle cx="1021.6" cy="935.048" r="246.54" style="fill:rgb(117,67,196);"/>
            </g>
            <g transform="matrix(1.17909,0,0,1.18931,-641.993,-525.224)">
                <path d="M1122.91,1016.2C1238.45,900.659 1145.96,713.803 1190.05,755.094C1238.1,800.093 1268.14,864.09 1268.14,935.048C1268.14,1071.12 1157.67,1181.59 1021.6,1181.59C955.131,1181.59 894.769,1155.23 850.41,1112.4C803.963,1067.55 1015.66,1123.45 1122.91,1016.2Z" style="fill:rgb(100,47,184);"/>
            </g>
            <g transform="matrix(1.17563,0,0,1.17563,-637.257,-509.815)">
                <path d="M1189.58,1100.33C1305.13,984.785 1263.98,855.479 1267.73,920.682C1268,925.436 1268.14,930.226 1268.14,935.048C1268.14,1071.12 1157.67,1181.59 1021.6,1181.59C1015.07,1181.59 1008.2,1180.04 1001.8,1179.54C943.027,1174.95 1082.34,1207.58 1189.58,1100.33Z" style="fill:rgb(73,23,152);"/>
            </g>
            <g transform="matrix(-0.0465234,-1.08563,1.08563,-0.0465234,-424.046,2586.57)">
                <path d="M1642.32,1271.92C1649.65,1255.21 1650.76,1248.23 1653.98,1235.03C1658.18,1217.79 1654.09,1211.75 1654.09,1211.75L1699.84,1234.83C1699.84,1234.83 1692.79,1234.46 1684.42,1247.29C1677.3,1258.21 1672.39,1264.92 1663.52,1282.18C1651.8,1305.02 1688.31,1358.84 1625.64,1330.94C1572.38,1307.24 1631.84,1295.78 1642.32,1271.92Z" style="fill:rgb(73,23,152);"/>
            </g>
            <g transform="matrix(0.0465234,1.08563,-1.08563,0.0465234,1553.39,-1409.5)">
                <path d="M1642.32,1271.92C1648.55,1258.71 1648.36,1249.84 1653.98,1235.03C1660.27,1218.44 1654.09,1211.75 1654.09,1211.75L1699.84,1234.83C1699.84,1234.83 1692.55,1234.3 1684.42,1247.29C1675.14,1262.12 1671.45,1264.56 1663.52,1282.18C1652.99,1305.59 1688.31,1358.84 1625.64,1330.94C1572.38,1307.24 1631.2,1295.49 1642.32,1271.92Z" style="fill:rgb(117,67,196);"/>
            </g>
            <g transform="matrix(0.595802,0,0,0.756964,-594.367,-431.095)">
                <g transform="matrix(0.4846,2.69007e-17,-2.69007e-17,0.4846,930.093,616.213)">
                    <circle cx="1750.02" cy="1141.02" r="54.583" style="fill:rgb(117,67,196);"/>
                </g>
                <g transform="matrix(0.4846,2.69007e-17,-2.69007e-17,0.4846,930.093,616.213)">
                    <path d="M1777.64,1168.22C1812.28,1133.57 1778.73,1092.55 1788.61,1102.43C1798.49,1112.31 1804.6,1125.96 1804.6,1141.02C1804.6,1171.14 1780.15,1195.6 1750.02,1195.6C1735.67,1195.6 1722.61,1190.05 1712.86,1180.99C1702.15,1171.02 1742.99,1202.86 1777.64,1168.22Z" style="fill:rgb(73,23,152);"/>
                </g>
            </g>
            <g transform="matrix(1.08662,0,0,1.08662,-1162.77,-780.309)">
                <g transform="matrix(0.4846,2.69007e-17,-2.69007e-17,0.4846,930.093,616.213)">
                    <circle cx="1750.02" cy="1141.02" r="54.583" style="fill:rgb(117,67,196);"/>
                </g>
                <g transform="matrix(0.4846,2.69007e-17,-2.69007e-17,0.4846,930.093,616.213)">
                    <path d="M1777.64,1168.22C1812.28,1133.57 1778.73,1092.55 1788.61,1102.43C1798.49,1112.31 1804.6,1125.96 1804.6,1141.02C1804.6,1171.14 1780.15,1195.6 1750.02,1195.6C1735.67,1195.6 1722.61,1190.05 1712.86,1180.99C1702.15,1171.02 1742.99,1202.86 1777.64,1168.22Z" style="fill:rgb(73,23,152);"/>
                </g>
            </g>
            <g transform="matrix(0.914929,0,0,0.824287,-1006.49,-194.663)">
                <g transform="matrix(0.4846,2.69007e-17,-2.69007e-17,0.4846,930.093,616.213)">
                    <circle cx="1750.02" cy="1141.02" r="54.583" style="fill:rgb(117,67,196);"/>
                </g>
                <g transform="matrix(0.4846,2.69007e-17,-2.69007e-17,0.4846,930.093,616.213)">
                    <path d="M1777.64,1168.22C1812.28,1133.57 1778.73,1092.55 1788.61,1102.43C1798.49,1112.31 1804.6,1125.96 1804.6,1141.02C1804.6,1171.14 1780.15,1195.6 1750.02,1195.6C1735.67,1195.6 1722.61,1190.05 1712.86,1180.99C1702.15,1171.02 1742.99,1202.86 1777.64,1168.22Z" style="fill:rgb(73,23,152);"/>
                </g>
            </g>
            <g transform="matrix(1.53062,0,0,1.40914,-2077.27,-1224.11)">
                <g transform="matrix(0.4846,2.69007e-17,-2.69007e-17,0.4846,930.093,616.213)">
                    <circle cx="1750.02" cy="1141.02" r="54.583" style="fill:rgb(117,67,196);"/>
                </g>
                <g transform="matrix(0.4846,2.69007e-17,-2.69007e-17,0.4846,930.093,616.213)">
                    <path d="M1777.64,1168.22C1812.28,1133.57 1778.73,1092.55 1788.61,1102.43C1798.49,1112.31 1804.6,1125.96 1804.6,1141.02C1804.6,1171.14 1780.15,1195.6 1750.02,1195.6C1735.67,1195.6 1722.61,1190.05 1712.86,1180.99C1702.15,1171.02 1742.99,1202.86 1777.64,1168.22Z" style="fill:rgb(73,23,152);"/>
                </g>
            </g>
            <g transform="matrix(1.08662,0,0,1.08662,-1482.06,-553.367)">
                <g transform="matrix(0.4846,2.69007e-17,-2.69007e-17,0.4846,930.093,616.213)">
                    <circle cx="1750.02" cy="1141.02" r="54.583" style="fill:rgb(117,67,196);"/>
                </g>
                <g transform="matrix(0.4846,2.69007e-17,-2.69007e-17,0.4846,930.093,616.213)">
                    <path d="M1777.64,1168.22C1812.28,1133.57 1778.73,1092.55 1788.61,1102.43C1798.49,1112.31 1804.6,1125.96 1804.6,1141.02C1804.6,1171.14 1780.15,1195.6 1750.02,1195.6C1735.67,1195.6 1722.61,1190.05 1712.86,1180.99C1702.15,1171.02 1742.99,1202.86 1777.64,1168.22Z" style="fill:rgb(73,23,152);"/>
                </g>
            </g>
            <g transform="matrix(1.08662,0,0,1.08662,-1594.41,-736.589)">
                <g transform="matrix(0.4846,2.69007e-17,-2.69007e-17,0.4846,930.093,616.213)">
                    <circle cx="1750.02" cy="1141.02" r="54.583" style="fill:rgb(117,67,196);"/>
                </g>
                <g transform="matrix(0.4846,2.69007e-17,-2.69007e-17,0.4846,930.093,616.213)">
                    <path d="M1777.64,1168.22C1812.28,1133.57 1778.73,1092.55 1788.61,1102.43C1798.49,1112.31 1804.6,1125.96 1804.6,1141.02C1804.6,1171.14 1780.15,1195.6 1750.02,1195.6C1735.67,1195.6 1722.61,1190.05 1712.86,1180.99C1702.15,1171.02 1742.99,1202.86 1777.64,1168.22Z" style="fill:rgb(73,23,152);"/>
                </g>
            </g>
            <g transform="matrix(1.52272,0,0,1.52272,-1978.56,-1112.79)">
                <g transform="matrix(0.4846,2.69007e-17,-2.69007e-17,0.4846,930.093,616.213)">
                    <circle cx="1750.02" cy="1141.02" r="54.583" style="fill:rgb(117,67,196);"/>
                </g>
                <g transform="matrix(0.4846,2.69007e-17,-2.69007e-17,0.4846,930.093,616.213)">
                    <path d="M1777.64,1168.22C1812.28,1133.57 1778.73,1092.55 1788.61,1102.43C1798.49,1112.31 1804.6,1125.96 1804.6,1141.02C1804.6,1171.14 1780.15,1195.6 1750.02,1195.6C1735.67,1195.6 1722.61,1190.05 1712.86,1180.99C1702.15,1171.02 1742.99,1202.86 1777.64,1168.22Z" style="fill:rgb(73,23,152);"/>
                </g>
            </g>
            <g transform="matrix(1,0,0,1.0652,-1232.08,-457.461)">
                <g transform="matrix(2.63612,0,0,0.976063,-4969.14,-236.716)">
                    <g transform="matrix(44.2569,0,0,119.528,2458.47,1296.06)">
                        <path d="M0.382,0.014C0.333,0.014 0.289,0.007 0.249,-0.008C0.208,-0.022 0.173,-0.042 0.144,-0.069C0.115,-0.096 0.092,-0.128 0.076,-0.166C0.059,-0.203 0.051,-0.245 0.051,-0.292C0.051,-0.344 0.061,-0.395 0.082,-0.446C0.102,-0.496 0.131,-0.541 0.169,-0.581C0.206,-0.62 0.252,-0.652 0.306,-0.677C0.36,-0.702 0.421,-0.714 0.488,-0.714C0.56,-0.714 0.62,-0.698 0.668,-0.666C0.716,-0.634 0.751,-0.591 0.772,-0.537L0.604,-0.447C0.59,-0.476 0.572,-0.498 0.549,-0.514C0.526,-0.529 0.498,-0.537 0.463,-0.537C0.434,-0.537 0.406,-0.531 0.381,-0.518C0.356,-0.505 0.334,-0.488 0.315,-0.467C0.296,-0.446 0.282,-0.421 0.271,-0.394C0.26,-0.366 0.254,-0.337 0.254,-0.306C0.254,-0.261 0.267,-0.226 0.294,-0.201C0.32,-0.175 0.353,-0.162 0.394,-0.162C0.425,-0.162 0.452,-0.168 0.475,-0.181C0.498,-0.193 0.521,-0.21 0.544,-0.233L0.675,-0.117C0.641,-0.078 0.6,-0.047 0.553,-0.023C0.506,0.002 0.449,0.014 0.382,0.014Z" style="fill:white;fill-rule:nonzero;"/>
                    </g>
                    <g transform="matrix(44.2569,0,0,119.528,2483.75,1296.06)">
                        <path d="M0.403,-0.161C0.434,-0.161 0.462,-0.168 0.487,-0.181C0.511,-0.194 0.533,-0.212 0.55,-0.234C0.567,-0.255 0.581,-0.279 0.591,-0.306C0.6,-0.332 0.605,-0.358 0.605,-0.384C0.605,-0.406 0.602,-0.427 0.595,-0.446C0.588,-0.464 0.579,-0.481 0.566,-0.495C0.553,-0.509 0.537,-0.52 0.518,-0.528C0.498,-0.535 0.477,-0.539 0.452,-0.539C0.421,-0.539 0.394,-0.532 0.369,-0.519C0.344,-0.506 0.323,-0.488 0.306,-0.467C0.288,-0.445 0.274,-0.421 0.265,-0.395C0.255,-0.368 0.25,-0.342 0.25,-0.316C0.25,-0.294 0.253,-0.274 0.26,-0.255C0.267,-0.236 0.277,-0.219 0.29,-0.205C0.303,-0.191 0.319,-0.18 0.338,-0.173C0.357,-0.165 0.378,-0.161 0.403,-0.161ZM0.386,0.013C0.336,0.013 0.291,0.005 0.25,-0.011C0.209,-0.027 0.173,-0.049 0.144,-0.077C0.115,-0.105 0.092,-0.138 0.076,-0.177C0.06,-0.215 0.052,-0.256 0.052,-0.301C0.052,-0.354 0.062,-0.406 0.083,-0.456C0.104,-0.505 0.133,-0.549 0.17,-0.587C0.207,-0.625 0.251,-0.656 0.302,-0.679C0.353,-0.701 0.408,-0.713 0.469,-0.713C0.519,-0.713 0.565,-0.705 0.606,-0.689C0.647,-0.673 0.682,-0.651 0.711,-0.623C0.74,-0.595 0.763,-0.562 0.779,-0.524C0.795,-0.485 0.803,-0.444 0.803,-0.399C0.803,-0.346 0.793,-0.294 0.772,-0.245C0.751,-0.195 0.723,-0.151 0.686,-0.113C0.649,-0.075 0.604,-0.045 0.554,-0.022C0.503,0.002 0.447,0.013 0.386,0.013Z" style="fill:white;fill-rule:nonzero;"/>
                    </g>
                    <g transform="matrix(44.2569,0,0,119.528,2515.3,1296.06)">
                        <path d="M0.109,-0.7L0.321,-0.7L0.36,-0.26L0.635,-0.7L0.854,-0.7L0.383,0.005L0.202,0.005L0.109,-0.7Z" style="fill:white;fill-rule:nonzero;"/>
                    </g>
                    <g transform="matrix(44.2569,0,0,119.528,2546.9,1296.06)">
                        <path d="M0.181,-0.7L0.375,-0.7L0.187,0L-0.007,0L0.181,-0.7Z" style="fill:white;fill-rule:nonzero;"/>
                    </g>
                    <g transform="matrix(44.2569,0,0,119.528,2560.18,1296.06)">
                        <path d="M0.176,-0.7L0.737,-0.7L0.692,-0.535L0.324,-0.535L0.295,-0.429L0.629,-0.429L0.588,-0.276L0.254,-0.276L0.224,-0.165L0.598,-0.165L0.554,0L-0.012,0L0.176,-0.7Z" style="fill:rgb(255,0,255);fill-rule:nonzero;"/>
                    </g>
                    <g transform="matrix(44.2569,0,0,119.528,2588.68,1296.06)">
                        <path d="M0.117,-0.7L0.318,-0.7L0.331,-0.295L0.573,-0.702L0.741,-0.702L0.768,-0.295L0.998,-0.7L1.209,-0.7L0.786,0.005L0.612,0.005L0.58,-0.393L0.335,0.005L0.162,0.005L0.117,-0.7Z" style="fill:rgb(255,0,255);fill-rule:nonzero;"/>
                    </g>
                    <g transform="matrix(44.2569,0,0,119.528,2636.35,1296.06)">
                        <path d="M0.293,-0.172C0.334,-0.172 0.371,-0.178 0.406,-0.19C0.441,-0.202 0.47,-0.22 0.493,-0.243C0.512,-0.262 0.526,-0.284 0.537,-0.309C0.548,-0.334 0.553,-0.361 0.553,-0.389C0.553,-0.41 0.55,-0.429 0.544,-0.445C0.538,-0.46 0.529,-0.474 0.518,-0.485C0.505,-0.498 0.487,-0.509 0.465,-0.517C0.443,-0.524 0.415,-0.528 0.381,-0.528L0.325,-0.528L0.229,-0.172L0.293,-0.172ZM0.176,-0.7L0.402,-0.7C0.47,-0.7 0.526,-0.692 0.57,-0.675C0.614,-0.658 0.649,-0.637 0.676,-0.61C0.727,-0.559 0.752,-0.491 0.752,-0.405C0.752,-0.352 0.742,-0.303 0.723,-0.256C0.704,-0.209 0.675,-0.167 0.637,-0.129C0.595,-0.087 0.544,-0.055 0.483,-0.033C0.422,-0.011 0.351,0 0.27,0L-0.012,0L0.176,-0.7Z" style="fill:white;fill-rule:nonzero;"/>
                    </g>
                </g>
                <g transform="matrix(1.34283,0,0,1.15461,-591.571,-152.483)">
                    <path d="M1642.42,949.673C1642.42,949.673 1621.63,960.508 1617.93,982.873C1613,1012.62 1631.45,1022.69 1631.45,1022.69" style="fill:none;stroke:rgb(117,67,196);stroke-width:8.29px;"/>
                </g>
            </g>
        </g>
    </g>
</svg>
